<svg width="356" height="88" viewBox="0 0 356 88" fill="none" xmlns="http://www.w3.org/2000/svg">
<g clip-path="url(#clip0_252_1491)">
<path d="M0 41C0 18.3563 18.3563 0 41 0C63.6437 0 82 18.3563 82 41V47C82 69.6437 63.6437 88 41 88C18.3563 88 0 69.6437 0 47V41Z" fill="#324823"/>
<path d="M46.5371 52.4658V55H34.8916C34.8623 53.9746 35.1699 52.8271 35.8145 51.5576C36.4688 50.2881 37.6602 48.7891 39.3887 47.0605C41.4102 45.0488 42.7334 43.4961 43.3584 42.4023C43.9834 41.2988 44.2959 40.2734 44.2959 39.3262C44.2959 38.2324 43.9736 37.3438 43.3291 36.6602C42.6943 35.9668 41.9082 35.6201 40.9707 35.6201C39.9648 35.6201 39.1396 35.9912 38.4951 36.7334C37.8506 37.4756 37.5283 38.54 37.5283 39.9268L35.3018 39.6484C35.458 37.5879 36.0391 36.04 37.0449 35.0049C38.0605 33.96 39.3936 33.4375 41.0439 33.4375C42.8408 33.4375 44.1982 34.043 45.1162 35.2539C46.0439 36.4648 46.5078 37.8418 46.5078 39.3848C46.5078 40.752 46.1465 42.0654 45.4238 43.3252C44.7012 44.5752 43.3291 46.2451 41.3076 48.335C40.0186 49.6533 39.1836 50.5518 38.8027 51.0303C38.4316 51.5088 38.1289 51.9873 37.8945 52.4658H46.5371Z" fill="white"/>
<rect width="137.5" height="2" transform="translate(82 43)" fill="#324823"/>
<rect width="137.5" height="2" transform="translate(219.5 43)" fill="#324823"/>
</g>
<defs>
<clipPath id="clip0_252_1491">
<rect width="357" height="88" fill="white"/>
</clipPath>
</defs>
</svg>
