<svg width="80" height="80" viewBox="0 0 80 80" fill="none" xmlns="http://www.w3.org/2000/svg">
<path d="M74.1277 62.7539C74.2434 63.9713 69.549 67.6486 68.679 68.7312C67.4294 70.2861 61.4085 73.7116 59.3793 74.2832C52.8604 76.1196 47.056 78.7921 40.214 77.0846C37.8904 76.5047 32.0581 75.8538 31.0947 73.16C30.9854 72.8544 29.8021 71.8236 29.0357 71.4814M29.0357 71.4814C28.7468 71.3524 28.5172 71.3213 28.4266 71.4637C27.9128 72.2719 29.0595 75.129 29.2627 76.0416C30.507 81.63 29.3205 73.8661 29.0357 71.4814ZM29.0357 71.4814C29.0207 71.3562 29.0083 71.2459 28.9988 71.1531C28.9023 70.21 35.5908 71.6853 36.5939 71.9356M7.59217 60.5625C6.40626 60.2643 4.51143 54.6102 3.78231 53.4281C2.73509 51.7303 1.52129 44.9103 1.6615 42.8068C2.11194 36.0491 1.5353 29.6851 5.43346 23.8087C6.7573 21.813 9.32197 16.5345 12.1828 16.5279C12.5074 16.5271 13.8748 15.7568 14.4536 15.1491M14.4536 15.1491C14.6718 14.92 14.778 14.714 14.6741 14.5811C14.0843 13.8264 11.0083 13.9512 10.0803 13.8374C4.39765 13.1403 12.1111 14.6197 14.4536 15.1491ZM14.4536 15.1491C14.5766 15.1769 14.6847 15.2021 14.7754 15.2242C15.6964 15.4487 12.0684 21.2582 11.4969 22.1198M38.0686 1.96013C38.912 1.07471 44.7663 2.20886 46.1542 2.15615C48.1475 2.08043 54.6814 4.3813 56.4433 5.53888C62.1036 9.25769 67.927 11.8887 71.123 18.1747C72.2084 20.3095 75.5404 25.1404 74.1377 27.6339M74.1377 27.6339C73.9186 28.0234 73.9962 30.852 74.6059 30.7607M74.1377 27.6339C73.9786 27.9167 73.9759 29.4861 74.22 30.2892M74.6059 30.7607C75.553 30.6189 76.9588 27.88 77.5147 27.1282M74.6059 30.7607C74.439 30.7857 74.312 30.5919 74.22 30.2892M77.5147 27.1282C81.0976 22.2835 75.2769 29.1683 73.9962 30.5323M77.5147 27.1282C80.919 22.5251 75.834 28.5108 74.22 30.2892M73.9962 30.5323C73.3474 31.2234 70.0766 25.2056 69.608 24.2839M73.9962 30.5323C74.0601 30.4643 74.1353 30.3825 74.22 30.2892" stroke="#FF671F" stroke-width="2" stroke-linecap="round"/>
</svg>
