<svg width="25" height="26" viewBox="0 0 25 26" fill="none" xmlns="http://www.w3.org/2000/svg">
<g id="Instagram">
<path id="Vector" d="M8.33171 2.60001C5.11587 2.60001 2.5 5.32303 2.5 8.66837V17.335C2.5 20.6795 5.11829 23.4 8.33496 23.4H16.6683C19.8841 23.4 22.5 20.677 22.5 17.3316V8.66498C22.5 5.32051 19.8817 2.60001 16.665 2.60001H8.33171ZM18.3333 6.06667C18.7933 6.06667 19.1667 6.45494 19.1667 6.93334C19.1667 7.41174 18.7933 7.80001 18.3333 7.80001C17.8733 7.80001 17.5 7.41174 17.5 6.93334C17.5 6.45494 17.8733 6.06667 18.3333 6.06667ZM12.5 7.80001C15.2575 7.80001 17.5 10.1322 17.5 13C17.5 15.8678 15.2575 18.2 12.5 18.2C9.7425 18.2 7.5 15.8678 7.5 13C7.5 10.1322 9.7425 7.80001 12.5 7.80001ZM12.5 9.53334C11.6159 9.53334 10.7681 9.89858 10.143 10.5487C9.51786 11.1988 9.16667 12.0806 9.16667 13C9.16667 13.9194 9.51786 14.8012 10.143 15.4513C10.7681 16.1014 11.6159 16.4667 12.5 16.4667C13.3841 16.4667 14.2319 16.1014 14.857 15.4513C15.4821 14.8012 15.8333 13.9194 15.8333 13C15.8333 12.0806 15.4821 11.1988 14.857 10.5487C14.2319 9.89858 13.3841 9.53334 12.5 9.53334Z" fill="#555555"/>
</g>
</svg>
