<svg width="106" height="103" viewBox="0 0 106 103" fill="none" xmlns="http://www.w3.org/2000/svg">
<path d="M98.8739 81.8154C99.0301 83.4247 92.6908 88.286 91.5159 89.7171C89.8284 91.7726 81.6978 96.301 78.9576 97.0567C70.1544 99.4843 62.3161 103.017 53.0766 100.76C49.9388 99.9935 42.0627 99.133 40.7619 95.5719C40.6143 95.1679 39.0163 93.8051 37.9813 93.3528M37.9813 93.3528C37.5912 93.1823 37.2811 93.1411 37.1588 93.3294C36.4649 94.3978 38.0134 98.1747 38.2879 99.3812C39.9681 106.769 38.3659 96.5052 37.9813 93.3528ZM37.9813 93.3528C37.9611 93.1873 37.9443 93.0415 37.9315 92.9188C37.8011 91.672 46.8333 93.6223 48.188 93.9533M9.02383 78.9185C7.42236 78.5242 4.86357 71.0497 3.87896 69.487C2.46479 67.2425 0.825662 58.2268 1.015 55.4461C1.62328 46.5127 0.844586 38.0997 6.10868 30.3313C7.89641 27.693 11.3598 20.7151 15.2231 20.7064C15.6614 20.7054 17.5079 19.6871 18.2896 18.8837M18.2896 18.8837C18.5842 18.5808 18.7276 18.3085 18.5872 18.1327C17.7909 17.1352 13.637 17.3001 12.3838 17.1496C4.70992 16.2281 15.1262 18.1838 18.2896 18.8837ZM18.2896 18.8837C18.4556 18.9204 18.6016 18.9537 18.7241 18.9829C19.9678 19.2798 15.0686 26.9597 14.2968 28.0987M50.1793 1.44835C51.3183 0.277868 59.224 1.77717 61.0982 1.70748C63.7901 1.60739 72.6134 4.64905 74.9927 6.17932C82.6365 11.0954 90.5003 14.5736 94.8163 22.8834C96.282 25.7055 100.782 32.0918 98.8874 35.388M98.8874 35.388C98.5915 35.903 98.6962 39.6423 99.5196 39.5216M98.8874 35.388C98.6725 35.762 98.6689 37.8367 98.9985 38.8983M99.5196 39.5216C100.799 39.3341 102.697 35.7134 103.448 34.7196M99.5196 39.5216C99.2942 39.5546 99.1227 39.2984 98.9985 38.8983M103.448 34.7196C108.286 28.315 100.426 37.4165 98.6963 39.2196M103.448 34.7196C108.045 28.6344 101.178 36.5473 98.9985 38.8983M98.6963 39.2196C97.8201 40.1333 93.4032 32.1779 92.7704 30.9596M98.6963 39.2196C98.7826 39.1297 98.8841 39.0217 98.9985 38.8983" stroke="#FF671F" stroke-width="2" stroke-linecap="round"/>
</svg>
